<?xml version="1.0" encoding="UTF-8" standalone="no"?>
<!-- Created with Inkscape (http://www.inkscape.org/) -->

<svg
   width="40mm"
   height="40mm"
   viewBox="0 0 40.000001 40"
   version="1.1"
   id="svg5"
   xml:space="preserve"
   inkscape:version="1.3 (0e150ed, 2023-07-21)"
   sodipodi:docname="icon.svg"
   inkscape:export-filename="icon.png"
   inkscape:export-xdpi="40.639999"
   inkscape:export-ydpi="40.639999"
   xmlns:inkscape="http://www.inkscape.org/namespaces/inkscape"
   xmlns:sodipodi="http://sodipodi.sourceforge.net/DTD/sodipodi-0.dtd"
   xmlns="http://www.w3.org/2000/svg"
   xmlns:svg="http://www.w3.org/2000/svg"><sodipodi:namedview
     id="namedview7"
     pagecolor="#ffffff"
     bordercolor="#000000"
     borderopacity="0.25"
     inkscape:showpageshadow="2"
     inkscape:pageopacity="0.0"
     inkscape:pagecheckerboard="0"
     inkscape:deskcolor="#d1d1d1"
     inkscape:document-units="mm"
     showgrid="false"
     inkscape:zoom="2.0008858"
     inkscape:cx="113.19986"
     inkscape:cy="96.457278"
     inkscape:window-width="1680"
     inkscape:window-height="939"
     inkscape:window-x="0"
     inkscape:window-y="25"
     inkscape:window-maximized="1"
     inkscape:current-layer="text1" /><defs
     id="defs2"><linearGradient
       id="swatch2"
       inkscape:swatch="solid"><stop
         style="stop-color:#020202;stop-opacity:1;"
         offset="0"
         id="stop2" /></linearGradient><rect
       x="233.32127"
       y="29.695436"
       width="528.57874"
       height="153.56783"
       id="rect233" /></defs><g
     inkscape:label="Layer 1"
     inkscape:groupmode="layer"
     id="layer1"
     transform="translate(-2.3392825,-2.1397271)"><rect
       style="fill:#000000;fill-opacity:1;stroke:#000000;stroke-width:0.306877;stroke-opacity:1"
       id="rect1"
       width="39.674877"
       height="40.035976"
       x="2.5663152"
       y="2.3911786" /><g
       id="text3"
       transform="translate(-19.246591,-0.20048532)"><g
         id="text1"><path
           style="color:#000000;-inkscape-font-specification:'Futura Medium';fill:#ffffff;-inkscape-stroke:none"
           d="M 24.002226,32.597706 V 29.032032 L 35.737944,23.481983 24.002226,17.900928 v -3.534667 l 15.549438,7.596435 v 3.054077 z M 54.915068,9.4363289 H 58.41873 V 35.620777 h -3.503662 v -1.581299 q -2.06189,2.015381 -4.666382,2.015381 -3.100586,0 -5.146973,-2.263428 -2.030884,-2.309936 -2.030884,-5.767089 0,-3.379639 2.030884,-5.643067 2.015381,-2.27893 5.069458,-2.27893 2.651001,0 4.743897,2.17041 z M 46.636503,28.024342 q 0,2.17041 1.16272,3.534668 1.193726,1.37976 3.007568,1.37976 1.937867,0 3.131592,-1.333252 1.193726,-1.37976 1.193726,-3.503662 0,-2.123901 -1.193726,-3.503662 -1.193725,-1.348755 -3.100586,-1.348755 -1.79834,0 -3.007568,1.364258 -1.193726,1.379761 -1.193726,3.410645 z"
           id="path1" /><path
           style="color:#000000;-inkscape-font-specification:'Futura Medium';fill:#000000;-inkscape-stroke:none"
           d="M 54.783203,9.3046875 V 9.4355469 22.015625 c -1.363531,-1.325124 -2.897936,-2.044922 -4.611328,-2.044922 -2.068397,0 -3.802584,0.778967 -5.167969,2.322266 -1.375779,1.533311 -2.064453,3.450879 -2.064453,5.730468 0,2.330671 0.686969,4.290935 2.0625,5.855469 h 0.002 v 0.002 c 1.386548,1.533606 3.144895,2.306641 5.244141,2.306641 1.681608,0 3.191676,-0.667983 4.535156,-1.898438 v 1.464844 h 3.767578 V 9.3046875 Z m 0.263672,0.2636719 h 3.240234 V 35.488281 h -3.240234 v -1.763672 l -0.224609,0.220703 c -1.354681,1.324124 -2.872016,1.976563 -4.574219,1.976563 -2.034295,0 -3.7051,-0.735289 -5.046875,-2.21875 -1.332312,-1.515377 -1.998047,-3.400826 -1.998047,-5.679688 0,-2.226591 0.66403,-4.070097 1.996094,-5.554687 h 0.002 c 1.321618,-1.494444 2.967559,-2.234375 4.970703,-2.234375 1.731229,0 3.272548,0.704011 4.648437,2.130859 l 0.226563,0.234375 z M 23.869141,14.154297 v 3.830078 l 11.560546,5.498047 -11.560546,5.466797 v 3.859375 l 0.191406,-0.0918 15.623047,-7.617188 v -3.21875 z m 0.265625,0.423828 15.285156,7.466797 v 2.888672 L 24.134766,32.384766 V 29.115234 L 36.046875,23.482422 24.134766,17.816406 Z m 26.703125,8.539062 c -1.232345,0 -2.279678,0.474338 -3.107422,1.408204 v 0.002 c -0.81683,0.944127 -1.226563,2.116252 -1.226563,3.496093 0,1.470563 0.397702,2.685231 1.195313,3.621094 v 0.002 c 0.817508,0.944912 1.864651,1.423829 3.107422,1.423828 1.322248,0 2.410922,-0.461615 3.230468,-1.376953 l 0.002,-0.002 c 0.817793,-0.945239 1.22461,-2.149126 1.22461,-3.589844 0,-1.440717 -0.406818,-2.644603 -1.22461,-3.589843 h -0.002 v -0.002 c -0.818985,-0.925348 -1.896788,-1.392579 -3.199218,-1.392579 z m 0,0.263672 c 1.239457,0 2.227516,0.432535 3,1.304688 C 54.611732,25.579986 55,26.710414 55,28.101562 c 0,1.391149 -0.388268,2.52353 -1.162109,3.417969 -0.771822,0.860894 -1.770725,1.28711 -3.03125,1.28711 -1.17513,0 -2.132318,-0.440068 -2.90625,-1.333985 -0.752681,-0.883145 -1.13086,-2.025903 -1.13086,-3.449219 0,-1.328001 0.385353,-2.426713 1.160156,-3.322265 0.784559,-0.885144 1.742764,-1.320313 2.908204,-1.320313 z"
           id="path2" /></g></g></g></svg>
