<?xml version="1.0" encoding="UTF-8" standalone="no"?>
<!-- Created with Inkscape (http://www.inkscape.org/) -->

<svg
   width="163.94118mm"
   height="40mm"
   viewBox="0 0 163.94118 40"
   version="1.1"
   id="svg5"
   xml:space="preserve"
   inkscape:version="1.3 (0e150ed, 2023-07-21)"
   sodipodi:docname="logo.svg"
   xmlns:inkscape="http://www.inkscape.org/namespaces/inkscape"
   xmlns:sodipodi="http://sodipodi.sourceforge.net/DTD/sodipodi-0.dtd"
   xmlns="http://www.w3.org/2000/svg"
   xmlns:svg="http://www.w3.org/2000/svg"><sodipodi:namedview
     id="namedview7"
     pagecolor="#ffffff"
     bordercolor="#000000"
     borderopacity="0.25"
     inkscape:showpageshadow="2"
     inkscape:pageopacity="0.0"
     inkscape:pagecheckerboard="0"
     inkscape:deskcolor="#d1d1d1"
     inkscape:document-units="mm"
     showgrid="false"
     inkscape:zoom="0.81596613"
     inkscape:cx="262.87856"
     inkscape:cy="169.12467"
     inkscape:window-width="1680"
     inkscape:window-height="939"
     inkscape:window-x="0"
     inkscape:window-y="25"
     inkscape:window-maximized="1"
     inkscape:current-layer="text5" /><defs
     id="defs2"><linearGradient
       id="swatch2"
       inkscape:swatch="solid"><stop
         style="stop-color:#020202;stop-opacity:1;"
         offset="0"
         id="stop2" /></linearGradient><rect
       x="233.32127"
       y="29.695436"
       width="528.57874"
       height="153.56783"
       id="rect233" /></defs><g
     inkscape:label="Layer 1"
     inkscape:groupmode="layer"
     id="layer1"
     transform="translate(-2.3392825,-2.1397271)"><rect
       style="fill:#000000;fill-opacity:1;stroke:#000000;stroke-width:0.534644;stroke-opacity:1"
       id="rect1"
       width="136.2048"
       height="35.397533"
       x="11.702038"
       y="5.111371" /><g
       id="text3"><path
         style="color:#000000;-inkscape-font-specification:'Futura Medium';fill:#f3f3f3;-inkscape-stroke:none"
         d="m 60.53353,8.0881807 h 3.114364 V 31.363228 H 60.53353 V 29.95763 q -1.832789,1.791448 -4.147891,1.791448 -2.756075,0 -4.575084,-2.011934 -1.805228,-2.053275 -1.805228,-5.126298 0,-3.004121 1.805228,-5.016055 1.791449,-2.025715 4.506182,-2.025715 2.356443,0 4.216793,1.929252 z M 53.174812,24.610846 q 0,1.929252 1.033528,3.141925 1.061089,1.226453 2.673392,1.226453 1.722547,0 2.783635,-1.185112 1.061089,-1.226453 1.061089,-3.114364 0,-1.887911 -1.061089,-3.114364 -1.061088,-1.198892 -2.756074,-1.198892 -1.598523,0 -2.673392,1.212672 -1.061089,1.226453 -1.061089,3.031682 z M 70.662104,38.666825 H 67.56152 V 17.941146 h 3.100584 v 1.46072 q 1.832789,-1.83279 4.161672,-1.83279 2.769855,0 4.561303,2.039495 1.819009,2.025715 1.819009,5.112518 0,3.017901 -1.805229,5.029835 -1.791448,1.998154 -4.519961,1.998154 -2.356444,0 -4.216794,-1.887911 z m 7.372499,-13.931956 q 0,-1.929252 -1.047309,-3.141924 -1.061088,-1.226453 -2.673392,-1.226453 -1.708766,0 -2.769854,1.185111 -1.061089,1.185112 -1.061089,3.114364 0,1.887911 1.061089,3.114364 1.047308,1.198893 2.756074,1.198893 1.612303,0 2.659612,-1.212673 1.074869,-1.212673 1.074869,-3.031682 z M 87.92891,20.835024 V 31.363228 H 84.828326 V 20.835024 h -1.322915 v -2.893878 h 1.322915 v -4.919592 h 3.100584 v 4.919592 h 2.411565 v 2.893878 z m 4.519961,-2.893878 h 3.100583 v 1.198893 q 0.854383,-0.895725 1.515841,-1.226454 0.675238,-0.344509 1.598523,-0.344509 1.226453,0 2.563152,0.799262 l -1.419381,2.838756 q -0.881944,-0.633897 -1.722547,-0.633897 -2.535588,0 -2.535588,3.830943 v 6.959088 h -3.100583 z m 20.257149,0 h 3.11436 v 13.422082 h -3.11436 V 29.95763 q -1.91547,1.791448 -4.12033,1.791448 -2.78364,0 -4.60265,-2.011934 -1.80522,-2.053275 -1.80522,-5.126298 0,-3.017901 1.80522,-5.029836 1.80523,-2.011934 4.51997,-2.011934 2.34266,0 4.20301,1.929252 z m -7.35872,6.6697 q 0,1.929252 1.03353,3.141925 1.06109,1.226453 2.67339,1.226453 1.72255,0 2.78364,-1.185112 1.06108,-1.226453 1.06108,-3.114364 0,-1.887911 -1.06108,-3.114364 -1.06109,-1.198892 -2.75608,-1.198892 -1.59852,0 -2.67339,1.212672 -1.06109,1.226453 -1.06109,3.031682 z m 14.38671,-6.6697 h 3.11437 v 1.240234 q 1.62608,-1.612304 3.66557,-1.612304 2.34267,0 3.6518,1.4745 1.12999,1.254014 1.12999,4.09277 v 8.226882 h -3.11436 v -7.496522 q 0,-1.984374 -0.55122,-2.742294 -0.53743,-0.771701 -1.95681,-0.771701 -1.5434,0 -2.19108,1.019748 -0.63389,1.005967 -0.63389,3.513994 v 6.476775 h -3.11437 z"
         id="path5" /><path
         style="color:#000000;-inkscape-font-specification:'Futura Medium';fill:#000000;-inkscape-stroke:none"
         d="M 60.400391,7.9550781 V 8.0878906 19.240234 C 59.192102,18.076059 57.832878,17.4375 56.316406,17.4375 c -1.842725,0 -3.389202,0.694996 -4.605469,2.070312 -1.224121,1.365311 -1.83789,3.075284 -1.83789,5.103516 0,2.074585 0.612797,3.819464 1.83789,5.212891 l 0.002,0.002 c 1.234962,1.365943 2.802302,2.054687 4.671875,2.054687 1.487839,0 2.825293,-0.591339 4.015625,-1.671875 v 1.28711 h 3.378906 V 7.9550781 Z m 0.265625,0.265625 h 2.849609 V 31.230469 h -2.849609 v -1.587891 l -0.22461,0.220703 c -1.201946,1.174835 -2.547363,1.753906 -4.05664,1.753906 -1.805191,0 -3.286182,-0.652117 -4.476563,-1.96875 -1.180672,-1.343919 -1.771484,-3.015363 -1.771484,-5.037109 0,-1.976246 0.589858,-3.610807 1.771484,-4.927734 h 0.002 v -0.002 c 1.17233,-1.325635 2.629335,-1.980469 4.40625,-1.980469 1.534858,0 2.900235,0.622596 4.121094,1.888672 l 0.228516,0.236328 z m 24.029296,4.6679689 v 4.919922 h -1.322265 v 3.158203 h 1.322265 v 10.529297 h 3.365235 V 20.966797 h 2.412109 v -3.158203 h -2.412109 v -4.919922 z m 0.265625,0.265625 h 2.835938 v 4.919922 h 2.412109 v 2.628906 h -2.412109 v 0.132812 10.394532 H 84.960937 V 20.703125 h -1.322265 v -2.628906 h 1.322265 z M 74.824219,17.4375 c -1.49745,0 -2.838266,0.606892 -4.029297,1.712891 v -1.341797 h -3.365235 v 20.990234 h 3.365235 v -0.132812 -8.550782 c 1.208772,1.140257 2.567657,1.765625 4.083984,1.765625 1.8513,0 3.402559,-0.684058 4.619141,-2.041015 1.225443,-1.365761 1.83789,-3.080831 1.83789,-5.119141 0,-2.083209 -0.617335,-3.824088 -1.851562,-5.199219 C 78.267768,18.136423 76.703256,17.4375 74.824219,17.4375 Z m 23.839843,0 c -0.631976,0 -1.186301,0.116656 -1.658203,0.357422 -0.395272,0.197636 -0.848447,0.601844 -1.324218,1.070312 v -1.05664 h -3.365235 v 0.132812 13.554688 h 3.365235 v -7.091797 c 0,-1.262387 0.211134,-2.19614 0.611328,-2.800781 0.400194,-0.604642 0.981086,-0.898438 1.792968,-0.898438 0.527148,0 1.072744,0.198403 1.644532,0.609375 l 0.126953,0.08984 1.542968,-3.085938 -0.10547,-0.06445 C 100.38849,17.71192 99.510434,17.4375 98.664062,17.4375 Z m 9.839848,0 c -1.84251,0 -3.39364,0.688865 -4.61914,2.054687 -1.22544,1.365762 -1.83985,3.080832 -1.83985,5.119141 0,2.074585 0.6128,3.819463 1.83789,5.212891 h 0.002 v 0.002 c 1.23518,1.36619 2.81354,2.054687 4.70117,2.054687 1.42301,0 2.75219,-0.592706 3.98828,-1.675781 v 1.291016 h 3.37891 v -13.6875 h -3.37891 v 0.132812 1.298828 C 111.36629,18.075547 110.0123,17.4375 108.50391,17.4375 Z m 18.00976,0 c -1.30614,0 -2.48093,0.533099 -3.5332,1.494141 v -1.123047 h -3.37891 v 0.132812 13.554688 h 3.37891 v -6.609375 c 0,-1.660871 0.21712,-2.814669 0.61328,-3.44336 0.40629,-0.639687 1.08028,-0.958984 2.08008,-0.958984 0.92228,0 1.52058,0.245197 1.84765,0.714844 v 0.002 l 0.002,0.002 c 0.33518,0.460865 0.52539,1.353397 0.52539,2.664062 v 7.628907 h 3.3789 v -8.359375 c 0,-1.910056 -0.3775,-3.308753 -1.16406,-4.181641 -0.89869,-1.011479 -2.16111,-1.517578 -3.75,-1.517578 z m -51.689451,0.263672 c 1.814098,0 3.28895,0.659877 4.460937,1.99414 l 0.002,0.002 c 1.190354,1.325621 1.785157,2.991556 1.785157,5.023437 0,1.985554 -0.589958,3.624591 -1.771485,4.941406 -1.172013,1.307246 -2.635161,1.955078 -4.421875,1.955078 -1.535632,0 -2.902415,-0.610894 -4.123047,-1.849609 l -0.226562,-0.228516 v 8.996094 H 67.693359 V 18.074219 h 2.835938 v 1.646484 l 0.226562,-0.224609 c 1.202048,-1.202048 2.550476,-1.794922 4.06836,-1.794922 z m 23.839843,0 c 0.751795,0 1.546358,0.268977 2.376958,0.74414 l -1.300786,2.601563 c -0.555254,-0.36828 -1.108324,-0.605469 -1.654297,-0.605469 -0.878507,0 -1.56867,0.343287 -2.013671,1.015625 -0.445001,0.672339 -0.654297,1.655693 -0.654297,2.947266 v 6.826172 h -2.835938 v -13.15625 h 2.835938 v 1.396484 l 0.226562,-0.240234 c 0.563432,-0.590696 1.061848,-0.989908 1.480469,-1.199219 0.428415,-0.218579 0.939994,-0.330078 1.539062,-0.330078 z m 9.839848,0 c 1.52545,0 2.88645,0.622478 4.10742,1.888672 l 0.22656,0.236328 v -1.751953 h 2.84961 v 13.15625 h -2.84961 v -1.578125 l -0.22266,0.208984 c -1.25848,1.177 -2.59522,1.755859 -4.02929,1.755859 -1.82389,0 -3.31375,-0.652363 -4.50391,-1.96875 -1.18111,-1.344048 -1.77148,-3.014982 -1.77148,-5.037109 0,-1.985554 0.58996,-3.62459 1.77148,-4.941406 1.18147,-1.316753 2.64473,-1.96875 4.42188,-1.96875 z m 18.00976,0 c 1.53403,0 2.706,0.475986 3.55274,1.429687 l 0.002,0.002 c 0.72009,0.79913 1.0957,2.128958 1.0957,4.003907 v 8.09375 h -2.84961 v -7.363282 c 0,-1.335163 -0.17834,-2.270618 -0.57812,-2.820312 -0.38982,-0.557766 -1.09357,-0.826172 -2.0625,-0.826172 -1.05807,0 -1.84545,0.360103 -2.30274,1.080078 v 0.002 c -0.44903,0.712598 -0.65429,1.900823 -0.65429,3.583985 v 6.34375 h -2.84961 v -13.15625 h 2.84961 v 1.423828 l 0.22461,-0.222656 c 1.06441,-1.055398 2.24746,-1.574219 3.57226,-1.574219 z m -69.603514,2.533203 c -1.099134,0 -2.035266,0.425004 -2.773437,1.257812 -0.728405,0.841923 -1.09375,1.889737 -1.09375,3.119141 0,1.30979 0.35297,2.391755 1.064453,3.226563 v 0.002 c 0.729084,0.842707 1.665026,1.271484 2.773437,1.271484 1.178703,0 2.151691,-0.411937 2.882813,-1.228516 l 0.002,-0.002 c 0.729367,-0.843034 1.09375,-1.917781 1.09375,-3.201172 0,-1.28339 -0.364383,-2.358137 -1.09375,-3.201171 h -0.002 c -0.730561,-0.82544 -1.692336,-1.244141 -2.853516,-1.244141 z m 17.404297,0 c -1.16976,0 -2.138208,0.41215 -2.869141,1.228516 -0.731188,0.816652 -1.09375,1.892704 -1.09375,3.203125 0,1.28339 0.36243,2.358137 1.091797,3.201171 h 0.002 c 0.721658,0.826109 1.685354,1.244141 2.855469,1.244141 1.107481,0 2.037807,-0.424775 2.757813,-1.257812 0.738357,-0.833019 1.107422,-1.880412 1.107422,-3.119141 0,-1.310105 -0.357237,-2.393804 -1.078125,-3.228516 -0.729084,-0.842707 -1.665026,-1.271484 -2.773438,-1.271484 z m 34.767577,0 c -1.09913,0 -2.03526,0.425004 -2.77344,1.257812 -0.7284,0.841923 -1.09375,1.889737 -1.09375,3.119141 0,1.30979 0.35297,2.391755 1.06446,3.226563 l 0.002,0.002 c 0.72908,0.842707 1.66503,1.271484 2.77344,1.271484 1.1787,0 2.14973,-0.411937 2.88086,-1.228516 l 0.002,-0.002 c 0.72936,-0.843034 1.09375,-1.917781 1.09375,-3.201172 0,-1.28339 -0.36439,-2.358137 -1.09375,-3.201171 -0.73056,-0.82544 -1.69429,-1.244141 -2.85547,-1.244141 z m -52.171874,0.263672 c 1.098208,0 1.97024,0.382053 2.654297,1.154297 0.685417,0.792234 1.029297,1.793522 1.029297,3.027343 0,1.233822 -0.34388,2.23511 -1.029297,3.027344 -0.683394,0.762134 -1.566615,1.140625 -2.683594,1.140625 -1.041323,0 -1.886565,-0.389079 -2.572265,-1.18164 -0.666553,-0.782089 -1.001953,-1.792145 -1.001953,-3.054688 0,-1.177565 0.342918,-2.151966 1.029296,-2.945312 0.694777,-0.783239 1.542544,-1.167969 2.574219,-1.167969 z m 17.404297,0 c 1.041324,0 1.886567,0.389079 2.572266,1.18164 0.675522,0.782183 1.015625,1.79246 1.015625,3.054688 0,1.186614 -0.346216,2.161436 -1.041016,2.945312 h -0.002 c -0.676256,0.783033 -1.516893,1.167969 -2.558594,1.167969 -1.108237,0 -1.981497,-0.381882 -2.65625,-1.154297 -0.685416,-0.792234 -1.029297,-1.793522 -1.029297,-3.027343 0,-1.261914 0.343749,-2.261895 1.027344,-3.025391 0.683851,-0.763781 1.563282,-1.142578 2.671875,-1.142578 z m 34.767577,0 c 1.0988,0 1.97203,0.381215 2.65625,1.154297 0.68541,0.792234 1.0293,1.793522 1.0293,3.027343 0,1.233822 -0.34389,2.23511 -1.0293,3.027344 -0.68339,0.762134 -1.56661,1.140625 -2.68359,1.140625 -1.04077,0 -1.88676,-0.389929 -2.57227,-1.18164 -0.66655,-0.782089 -1.00195,-1.792145 -1.00195,-3.054688 0,-1.177565 0.34096,-2.151966 1.02734,-2.945312 0.69499,-0.784087 1.542,-1.167969 2.57422,-1.167969 z"
         id="path6" /></g><g
       id="text5"><path
         style="color:#000000;-inkscape-font-specification:'Futura Medium';fill:#ffffff;-inkscape-stroke:none"
         d="M 22.07156,32.734089 V 28.772227 L 35.111256,22.605502 22.07156,16.404326 v -3.927412 l 17.277166,8.44049 v 3.393421 z"
         id="path7" /><path
         style="color:#000000;-inkscape-font-specification:'Futura Medium';fill:#000000;-inkscape-stroke:none"
         d="m 21.939453,12.265625 v 4.222656 L 34.802734,22.605469 21.939453,28.6875 v 4.257812 l 0.189453,-0.0918 17.351563,-8.460938 V 20.833984 Z M 22.203125,12.6875 39.216797,21 v 3.228516 l -17.013672,8.294921 v -3.667968 l 13.216797,-6.25 -13.216797,-6.285157 z"
         id="path8" /></g></g></svg>
